<svg xmlns="http://www.w3.org/2000/svg" width="305.539" height="447.449"><g fill-rule="evenodd"><path fill="#FFF" d="m45.88 210.305 4.878-10.04 97.943 34.177 105.758-32.06a84.406 84.406 0 0 1 4.082 9.765l4.756 13.726a168.918 168.918 0 0 1 7.048 27.738L280 311.94l-.677-.288c.223 1.8.344 3.568.344 5.289 0 73.73-63.25 131.25-127.167 130.5-63.916-.75-128.5-59.77-128.5-133.5 0-3.491.664-7.38 1.638-11.38l-.577.196 3.414-31.83a183.12 183.12 0 0 1 6.078-31.066 183.089 183.089 0 0 1 11.327-29.557ZM190.294 267a170.256 170.256 0 0 0 1.019-7.667 164.546 164.546 0 0 0 25.402 21.815A164.623 164.623 0 0 0 246 297.384l11.337 4.854c2.22 6.536 3.33 11.437 3.33 14.704 0 15.248-3.091 29.898-9.273 43.95-5.874 13.354-14.105 25.257-24.691 35.71-10.349 10.219-21.981 18.115-34.897 23.69-12.947 5.588-25.974 8.305-39.083 8.152-13.163-.155-26.313-3.197-39.449-9.127-13.148-5.935-25.006-14.172-35.577-24.712-10.82-10.788-19.233-22.956-25.237-36.503-6.307-14.228-9.46-28.948-9.46-44.16 0-2.791 1.46-8.836 4.383-18.136l.222-.71 9.303-3.16a168.971 168.971 0 0 0 37.106-17.914l9.98-6.425a60.761 60.761 0 0 0 12.335-10.497 60.77 60.77 0 0 0 9.14-13.373 229.56 229.56 0 0 0 18.506 24.469l39.088 45.086L190.294 267Z"/><path fill="#FFF" d="m234.575 295.693-47.892 9.234L158 330.396l34.652-9.967 56.764-3.992-2.251-23.172-12.59 2.428ZM68.841 295.693l47.892 9.234 28.683 25.469-34.652-9.967L54 316.437l2.252-23.172 12.59 2.428ZM208.242 331.165c20.332 0 38.482 5.838 38.482 5.838s-27.443 29.664-47.774 29.664S170 340.815 170 340.815s17.911-9.65 38.242-9.65Zm-10.432 5c6.58 0 11.914 5.334 11.914 11.913 0 6.58-5.334 11.914-11.914 11.914s-11.914-5.334-11.914-11.914 5.334-11.913 11.914-11.913ZM97.481 331.165c-20.331 0-38.481 5.838-38.481 5.838s27.442 29.664 47.773 29.664c20.332 0 28.951-25.852 28.951-25.852s-17.911-9.65-38.243-9.65Zm10.433 5c-6.58 0-11.914 5.334-11.914 11.913 0 6.58 5.334 11.914 11.914 11.914 6.579 0 11.913-5.334 11.913-11.914s-5.334-11.913-11.913-11.913Z"/><path fill="#1A78D6" d="M305 133.226 94.497 147.851a145.772 145.772 0 0 0 11-11.545l2.648-3.105a63.797 63.797 0 0 0 7.167-10.294 63.738 63.738 0 0 0 5.017-11.496l.601-1.856a42.575 42.575 0 0 0 1.988-10.341c.235-3.53.036-7.035-.598-10.514l-.054-.302a44.633 44.633 0 0 0-2.986-9.82 44.548 44.548 0 0 0-5.147-8.878 49.562 49.562 0 0 0-6.978-7.58 49.628 49.628 0 0 0-8.388-5.98l-24.49-13.875 7.106 5.865a31.428 31.428 0 0 1 4.953 5.136 31.44 31.44 0 0 1 3.672 6.119 35.268 35.268 0 0 1 2.29 6.788c.533 2.34.824 4.71.874 7.11l.046 2.175a24.427 24.427 0 0 1-1.45 8.856 24.436 24.436 0 0 1-4.526 7.749l-2.889 3.349a30.029 30.029 0 0 1-4.887 4.535 30.034 30.034 0 0 1-5.765 3.348L0 103.625v64.2l152.347 46L305 168.326v-35.099Z"/><path fill="#1A78D6" d="m158.4 87.762 19.375-12.25L196.9 99.449l-20.5 18-48 15 30-44.687Z"/><path fill="#D021A1" d="m230.588 42.2 13.472 17.667-47.32 39.662-19.183-23.823 53.218-33.476-.187-.03Z"/><path fill="#213A95" d="m296.78.805-1.286.751L230 42.626l13.684 17.673 59.532-49.825.013-.01c1.227-.93 1.967-2.153 2.222-3.67.256-1.518-.044-2.917-.898-4.196-.855-1.28-2.032-2.092-3.532-2.438-1.499-.346-2.913-.13-4.241.645Z"/></g></svg>