<svg width="175" height="175" xmlns="http://www.w3.org/2000/svg">

 <g>
  <title>Layer 1</title>
  <ellipse stroke-width="0" ry="87.5" rx="87.5" id="svg_2" cy="87.5" cx="87.5" fill="#5865f2"/>
  <g stroke="null" data-name="图层 2" id="图层_2">
   <g stroke="null" data-name="Discord Logos" id="Discord_Logos">
    <g stroke="null" data-name="Discord Logo - Large - White" id="Discord_Logo_-_Large_-_White">
     <path stroke="null" id="svg_1" fill="#fff" d="m131.62977,47.39a105.15,105.15 0 0 0 -26.23,-8.07a72.06,72.06 0 0 0 -3.36,6.83a97.68,97.68 0 0 0 -29.11,0a72.37,72.37 0 0 0 -3.36,-6.83a105.89,105.89 0 0 0 -26.25,8.09c-16.6,24.56 -21.1,48.51 -18.85,72.12l0,0a105.73,105.73 0 0 0 32.17,16.15a77.7,77.7 0 0 0 6.89,-11.11a68.42,68.42 0 0 1 -10.85,-5.18c0.91,-0.66 1.8,-1.34 2.66,-2a75.57,75.57 0 0 0 64.32,0c0.87,0.71 1.76,1.39 2.66,2a68.68,68.68 0 0 1 -10.87,5.19a77,77 0 0 0 6.89,11.1a105.25,105.25 0 0 0 32.19,-16.14l0,0c2.64,-27.38 -4.51,-51.11 -18.9,-72.15zm-65.25,57.62c-6.27,0 -11.45,-5.69 -11.45,-12.69s5,-12.74 11.43,-12.74s11.57,5.74 11.46,12.74s-5.05,12.69 -11.44,12.69zm42.24,0c-6.28,0 -11.44,-5.69 -11.44,-12.69s5,-12.74 11.44,-12.74s11.54,5.74 11.43,12.74s-5.04,12.69 -11.43,12.69z" class="cls-1"/>
    </g>
   </g>
  </g>
 </g>
</svg>