<?xml version="1.0" standalone="no"?>
<!DOCTYPE svg PUBLIC "-//W3C//DTD SVG 20010904//EN"
 "http://www.w3.org/TR/2001/REC-SVG-20010904/DTD/svg10.dtd">
<svg version="1.0" xmlns="http://www.w3.org/2000/svg"
 width="500.000000pt" height="500.000000pt" viewBox="0 0 500.000000 500.000000"
 preserveAspectRatio="xMidYMid meet">

<g transform="translate(0.000000,500.000000) scale(0.100000,-0.100000)"
fill="#000000" stroke="none">
<path d="M3540 4207 c-63 -41 -275 -174 -470 -297 -586 -368 -508 -307 -635
-498 -61 -90 -111 -168 -113 -172 -1 -4 81 19 183 50 l185 58 72 64 c40 36
156 134 258 219 102 85 196 164 210 176 14 12 126 105 250 208 124 103 229
195 234 206 11 22 -17 59 -43 59 -9 0 -68 -33 -131 -73z"/>
<path d="M1951 3883 c53 -55 72 -99 77 -179 5 -77 -6 -109 -59 -173 -57 -70
-62 -71 -290 -71 -113 0 -247 -3 -298 -7 l-91 -6 2 -250 3 -250 305 -93 c168
-51 439 -133 602 -182 l298 -90 382 114 c211 63 483 144 606 181 l222 66 0
139 0 139 -52 -5 c-29 -4 -156 -13 -283 -21 -126 -9 -322 -22 -435 -30 -113
-8 -335 -24 -495 -35 -159 -11 -316 -22 -347 -24 l-57 -4 70 81 c40 47 86 114
107 157 35 71 37 80 37 175 0 95 -2 103 -34 163 -42 78 -87 118 -211 189 l-95
54 36 -38z"/>
</g>
</svg>
